# xmcd
#
# Track frame offsets:
#	150
#	7002
#	24385
#	39032
#	54280
#	74077
#	84712
#	90247
#	113152
#	127267
#
# Disc length: 2141 seconds
# Revision: 3
# Processed by: cddbd v1.5.2PL0 Copyright (c) Steve Scherf et al.
# Submitted via: dBpowerAMP V12.0
#
DISCID=7a085b0a
DTITLE=西村由紀江 - Yukie Nishimura - Vi・Ji・N （びじん） [dBP-LITE02-1-FLAC@]
DYEAR=1991
DGENRE=Instrumental
TTITLE0=凛
TTITLE1=森の聲〜GREEN FIELD〜
TTITLE2=水麗舞
TTITLE3=迷宮(ラビリンス)
TTITLE4=The sea dreams a dream〜海は夢をみている〜
TTITLE5=夢飛行
TTITLE6=星々が咲く夜
TTITLE7=更紗のベール
TTITLE8=食卓を包む、あふれる光と朝の匂い
TTITLE9=泪壷の詩
EXTD=
EXTT0=
EXTT1=
EXTT2=
EXTT3=
EXTT4=
EXTT5=
EXTT6=
EXTT7=
EXTT8=
EXTT9=
PLAYORDER=
